<svg height="512pt" viewBox="0 -46 512.0004 512" width="512pt" xmlns="http://www.w3.org/2000/svg"><path d="m378.769531 47.613281c16.882813-1.8125 32.339844 1.207031 45.941407 8.972657 20.03125 11.433593 33.660156 32.339843 38.386718 58.871093 5.289063 29.703125-1.003906 62.183594-17.722656 91.464844-21.570312 37.78125-57.597656 63.683594-94.019531 67.597656-16.882813 1.8125-32.34375-1.203125-45.945313-8.96875-20.027344-11.4375-33.660156-32.34375-38.386718-58.875-5.289063-29.699219 1.003906-62.179687 17.722656-91.460937 21.570312-37.78125 57.597656-63.6875 94.019531-67.601563zm-5.039062-46.839843c-49.726563 5.34375-99.707031 38.195312-129.898438 91.082031-45.847656 80.300781-28.734375 176.382812 38.21875 214.609375 22.855469 13.046875 48.5625 17.667968 74.335938 14.898437 49.730469-5.34375 99.707031-38.195312 129.902343-91.082031 45.847657-80.300781 28.734376-176.386719-38.21875-214.609375-22.855468-13.050781-48.5625-17.667969-74.339843-14.898437zm0 0" fill="#9ad880"/><path d="m458.882812 175.800781c-3.238281 10.589844-7.753906 21.042969-13.507812 31.121094-21.570312 37.78125-57.597656 63.683594-94.019531 67.597656-16.882813 1.8125-32.34375-1.203125-45.945313-8.96875-20.027344-11.4375-33.660156-32.34375-38.386718-58.875-5.289063-29.699219 1.003906-62.179687 17.722656-91.460937 13.527344-23.695313 32.742187-42.714844 54.171875-54.570313h-73.097657c-8.105468 9.433594-15.503906 19.855469-21.988281 31.210938-45.84375 80.300781-28.734375 176.382812 38.21875 214.609375 22.855469 13.050781 48.5625 17.667968 74.339844 14.898437 47.652344-5.121093 95.523437-35.488281 126.007813-84.546875-7.28125-21.757812-15.34375-42.257812-23.515626-61.015625zm0 0" fill="#8dc971"/><path d="m45.890625 158.914062 100.976563 204.109376 51.726562-102.519532-117.433594-146.324218zm0 0" fill="#c6c5ca"/><path d="m101.222656 270.765625 45.644532 92.257813 51.726562-102.519532-65.707031-81.875c-5.328125 20.207032-15.703125 55.355469-31.664063 92.136719zm0 0" fill="#acabb1"/><path d="m371.464844 101.65625h-160.117188c-17.152344 0-31.925781 12.097656-35.308594 28.914062l-45.597656 226.699219c-6.460937 32.105469 18.089844 62.085938 50.839844 62.085938h220.253906c32.75 0 57.296875-29.980469 50.839844-62.085938l-45.601562-226.699219c-3.382813-16.816406-18.152344-28.914062-35.308594-28.914062zm0 0" fill="#d8d7da"/><path d="m245.535156 277.691406c-9.371094-71.210937 4.878906-139.839844 14.796875-176.035156h-48.984375c-17.152344 0-31.925781 12.097656-35.308594 28.914062l-45.597656 226.699219c-6.460937 32.105469 18.089844 62.085938 50.839844 62.085938h77.625c-2.542969-39.648438-6.726562-91.167969-13.371094-141.664063zm0 0" fill="#c6c5ca"/><path d="m6.996094 136.503906 68.398437-56.816406c11.683594-9.707031 29.566407-2.773438 31.511719 12.292969 2.316406 17.984375-1.609375 41.441406-27.09375 62.609375-25.480469 21.164062-49.261719 20.726562-66.515625 15.148437-14.453125-4.675781-17.988281-23.527343-6.300781-33.234375zm0 0" fill="#f9867a"/><path d="m291.40625 331.230469c-15.988281 0-28.949219-12.960938-28.949219-28.949219v-21.042969c0-4.367187 3.539063-7.902343 7.902344-7.902343h42.09375c4.363281 0 7.902344 3.535156 7.902344 7.902343v21.042969c0 15.988281-12.960938 28.949219-28.949219 28.949219zm0 0" fill="#57565c"/><path d="m225.453125 302.28125c0-13.578125-13.824219-24.589844-30.878906-24.589844-17.054688 0-30.878907 11.011719-30.878907 24.589844 0 13.582031 13.824219 24.589844 30.878907 24.589844 17.054687 0 30.878906-11.007813 30.878906-24.589844zm0 0" fill="#ffa6bb"/><path d="m419.117188 302.28125c0-13.578125-13.824219-24.589844-30.875-24.589844-17.054688 0-30.878907 11.011719-30.878907 24.589844 0 13.582031 13.824219 24.589844 30.878907 24.589844 17.050781 0 30.875-11.007813 30.875-24.589844zm0 0" fill="#ffa6bb"/><g fill="#57565c"><path d="m374.5 288.785156c-4.269531 0-7.726562-3.460937-7.726562-7.726562v-12.828125c0-4.265625 3.457031-7.726563 7.726562-7.726563 4.265625 0 7.726562 3.460938 7.726562 7.726563v12.828125c0 4.265625-3.460937 7.726562-7.726562 7.726562zm0 0"/><path d="m208.316406 288.785156c-4.269531 0-7.726562-3.460937-7.726562-7.726562v-12.828125c0-4.265625 3.457031-7.726563 7.726562-7.726563 4.269532 0 7.726563 3.460938 7.726563 7.726563v12.828125c0 4.265625-3.457031 7.726562-7.726563 7.726562zm0 0"/></g></svg>